<svg width="512" height="512" viewBox="0 0 512 512" xmlns="http://www.w3.org/2000/svg">
  <path
    fill="currentColor"
    d="M306.426 419.373C318.246 415.248 326.894 404.76 320.477 384.6C319.942 382.92 319.532 381.535 319.234 380.416C300.161 334.257 250.003 319.965 216.744 310.488C188.907 302.556 172.909 297.998 196.885 280.95C216.109 267.281 228.821 261.207 263.113 261.207C342.793 261.207 416.391 334.102 416.391 401.035C416.391 462.818 357.259 500.003 291.252 509.437C279.435 511.126 267.357 512 255.076 512C114.418 512 0.391479 397.385 0.391479 256C0.391479 114.615 114.418 0 255.076 0C383.389 0 489.539 95.3787 507.185 219.449C509.337 232.67 510.21 238.766 511.514 253.397L511.443 253.356C512.068 257.927 512.391 262.574 512.391 267.281C512.391 290.462 512.392 313.275 491.35 334.102C476.088 349.208 469.612 337.947 457.756 317.332C444.072 293.54 423.223 257.289 373.432 234.739C340.083 219.635 308.556 217.644 281.816 223.024C227.898 233.871 321.706 151.431 390.089 151.431C391.334 151.431 392.578 151.45 393.818 151.49C362.453 111.578 313.538 85.9119 258.583 85.9119C163.923 85.9119 87.1859 162.063 87.1859 256C87.1859 349.937 163.923 426.088 258.583 426.088C275.188 426.088 295.889 423.051 306.426 419.373Z"
  />
</svg>
