<svg xmlns="http://www.w3.org/2000/svg" viewBox="0 0 100 100">
  <g id="icons-ios-fill">
    <g style="opacity:0.3">
      <g id="surface1">
        <path
          d="M42,27a5,5,0,1,0,5,5A5,5,0,0,0,42,27Zm15.81,0a5,5,0,1,0,5,5A5,5,0,0,0,57.81,27ZM42,38a6.78,6.78,0,0,0-3.06.72,8,8,0,0,1,.13,12.53,10.92,10.92,0,0,1,3.72,3.13A7.87,7.87,0,0,1,42,51a8,8,0,0,1,6.72-7.91A6.94,6.94,0,0,0,42,38Zm15.81,0a7,7,0,0,0-6.75,5.09A8,8,0,0,1,58,51a8,8,0,0,1-.66,3.16,11,11,0,0,1,3.59-3A8,8,0,0,1,61,38.8,6.67,6.67,0,0,0,57.81,38ZM34,39a6,6,0,1,0,6,6A6,6,0,0,0,34,39Zm32,0a6,6,0,1,0,6,6A6,6,0,0,0,66,39ZM50,45a6,6,0,1,0,6,6A6,6,0,0,0,50,45ZM34,52a9,9,0,0,0-9,9v3.5a1,1,0,0,0,.41.81C25.64,65.47,27.84,67,34,67a26.59,26.59,0,0,0,5.06-.44,11,11,0,0,1,3.66-7.75A9,9,0,0,0,34,52Zm32,0a9,9,0,0,0-8.72,6.78A11,11,0,0,1,61,66.58,26.77,26.77,0,0,0,66,67c6.16,0,8.36-1.51,8.59-1.69a1,1,0,0,0,.41-.81V61A9,9,0,0,0,66,52ZM48.65,58.11A9.19,9.19,0,0,0,41,67.3v3.21a1,1,0,0,0,.41.78C41.64,71.47,43.84,73,50,73s8.36-1.54,8.59-1.72a1,1,0,0,0,.41-.78V67A9,9,0,0,0,48.65,58.11Z"
          style="fill:#070707"/>
      </g>
      <rect x="25" y="25" width="50" height="50" style="fill:#070707;opacity:0"/>
    </g>
  </g>
</svg>
